<svg xmlns="http://www.w3.org/2000/svg" version="1.1" viewBox="4 40 257 257" width="200" height="200" xmlns:xlink="http://www.w3.org/1999/xlink">
<path fill="#fa4204" d="&#10;  M 117.70 66.27&#10;  Q 125.12 68.86 126.55 69.49&#10;  C 134.83 73.11 141.78 80.68 143.46 89.26&#10;  Q 144.92 96.69 142.86 103.91&#10;  C 141.48 108.72 136.92 114.28 131.60 114.63&#10;  C 125.01 115.07 119.46 112.84 116.50 106.99&#10;  C 112.87 99.83 115.95 92.83 119.92 86.58&#10;  Q 123.30 81.24 123.65 78.87&#10;  C 124.48 73.22 120.81 70.28 117.44 66.67&#10;  A 0.25 0.24 78.2 0 1 117.70 66.27&#10;  Z&#10;  M 125.52 92.94&#10;  Q 125.25 93.64 124.39 94.83&#10;  A 1.51 1.33 -19.5 0 0 124.20 95.17&#10;  C 121.82 101.06 124.24 106.08 127.84 110.53&#10;  A 2.59 2.57 69.6 0 0 129.90 111.48&#10;  C 135.10 111.37 138.35 107.60 139.71 102.75&#10;  Q 143.36 89.78 134.94 79.51&#10;  Q 133.40 77.64 127.03 73.34&#10;  A 0.23 0.23 0.0 0 0 126.67 73.57&#10;  Q 127.83 80.05 124.04 85.84&#10;  C 119.12 93.35 115.02 101.40 121.79 108.93&#10;  Q 122.11 109.28 123.69 109.93&#10;  A 0.21 0.21 0.0 0 0 123.96 109.64&#10;  Q 121.85 105.11 121.68 103.09&#10;  Q 121.21 97.62 125.18 92.74&#10;  A 0.20 0.20 0.0 0 1 125.52 92.94&#10;  Z"/>
<path fill="#ec7a54" d="&#10;  M 128.92 123.77&#10;  Q 127.18 132.08 124.26 139.19&#10;  A 0.36 0.36 0.0 0 0 124.59 139.68&#10;  Q 157.76 139.71 159.59 139.65&#10;  Q 169.19 139.35 172.64 141.35&#10;  Q 178.69 144.87 178.68 152.99&#10;  Q 178.61 206.26 178.72 219.22&#10;  Q 178.80 228.96 177.43 231.10&#10;  C 174.16 236.24 169.58 236.88 163.21 236.86&#10;  Q 148.24 236.79 96.03 236.87&#10;  Q 87.98 236.88 85.24 235.40&#10;  Q 79.10 232.09 78.84 223.57&#10;  Q 78.77 221.54 78.73 158.60&#10;  Q 78.73 148.45 80.31 145.60&#10;  Q 83.52 139.83 91.75 139.73&#10;  Q 100.53 139.61 111.74 139.70&#10;  A 0.81 0.81 0.0 0 0 112.52 139.12&#10;  L 116.97 123.55&#10;  A 0.76 0.75 8.2 0 1 117.70 123.01&#10;  L 128.30 123.01&#10;  A 0.63 0.63 0.0 0 1 128.92 123.77&#10;  Z&#10;  M 128.69 181.41&#10;  Q 162.38 181.41 165.56 181.36&#10;  A 0.42 0.42 0.0 0 0 165.98 180.94&#10;  Q 165.99 168.16 166.01 155.64&#10;  C 166.02 152.05 165.46 148.87 161.48 148.85&#10;  Q 158.29 148.84 128.69 148.84&#10;  Q 99.10 148.83 95.91 148.84&#10;  C 91.93 148.86 91.37 152.04 91.38 155.63&#10;  Q 91.39 168.15 91.40 180.93&#10;  A 0.42 0.42 0.0 0 0 91.82 181.35&#10;  Q 95.00 181.40 128.69 181.41&#10;  Z&#10;  M 165.63 190.84&#10;  L 91.79 190.84&#10;  A 0.40 0.40 0.0 0 0 91.39 191.24&#10;  L 91.39 223.63&#10;  A 4.76 4.39 -0.0 0 0 96.15 228.02&#10;  L 161.27 228.02&#10;  A 4.76 4.39 0.0 0 0 166.03 223.63&#10;  L 166.03 191.24&#10;  A 0.40 0.40 0.0 0 0 165.63 190.84&#10;  Z"/>
</svg>